<?xml version="1.0" encoding="utf-8"?>
<!-- Generator: Adobe Illustrator 17.1.0, SVG Export Plug-In . SVG Version: 6.00 Build 0)  -->
<!DOCTYPE svg PUBLIC "-//W3C//DTD SVG 1.1//EN" "http://www.w3.org/Graphics/SVG/1.1/DTD/svg11.dtd">
<svg version="1.1" id="Layer_1" xmlns="http://www.w3.org/2000/svg" xmlns:xlink="http://www.w3.org/1999/xlink" x="0px" y="0px"
	 viewBox="0 0 594.357 140" enable-background="new 0 0 594.357 140" xml:space="preserve">
<g>
	<rect x="-161.818" y="-525.455" fill="none" width="216.364" height="89.091"/>
	<path d="M-143.689-522.445c-0.7,0-1.26,0.175-1.68,0.525c-0.42,0.35-0.759,0.805-1.015,1.365c-0.257,0.56-0.432,1.202-0.525,1.925
		c-0.094,0.724-0.14,1.459-0.14,2.205v12.81c0,1.634-0.245,3.022-0.735,4.165c-0.49,1.144-1.062,2.089-1.715,2.835
		c-0.654,0.747-1.319,1.307-1.995,1.68c-0.677,0.374-1.225,0.607-1.645,0.7v0.21c0.42,0.047,0.968,0.234,1.645,0.56
		c0.676,0.327,1.341,0.852,1.995,1.575c0.653,0.724,1.225,1.669,1.715,2.835c0.49,1.167,0.735,2.637,0.735,4.41v12.74
		c0,0.7,0.046,1.411,0.14,2.135c0.093,0.723,0.268,1.376,0.525,1.96c0.256,0.583,0.595,1.05,1.015,1.4
		c0.42,0.35,0.98,0.525,1.68,0.525h3.5v4.2h-4.9c-0.887,0-1.774-0.199-2.66-0.595c-0.887-0.397-1.692-0.98-2.415-1.75
		c-0.724-0.77-1.319-1.727-1.785-2.87c-0.467-1.144-0.7-2.462-0.7-3.955v-12.67c0-1.26-0.164-2.403-0.49-3.43
		c-0.327-1.026-0.759-1.89-1.295-2.59c-0.537-0.7-1.155-1.236-1.855-1.61c-0.7-0.373-1.424-0.56-2.17-0.56v-4.76
		c0.746,0,1.47-0.198,2.17-0.595c0.7-0.396,1.318-0.956,1.855-1.68c0.536-0.723,0.968-1.598,1.295-2.625
		c0.326-1.026,0.49-2.146,0.49-3.36v-12.74c0-1.493,0.233-2.811,0.7-3.955c0.466-1.143,1.061-2.1,1.785-2.87
		c0.723-0.77,1.528-1.353,2.415-1.75c0.886-0.396,1.773-0.595,2.66-0.595h4.9v4.2H-143.689z"/>
	<path d="M-109.669-475.475v-5.74h-0.14c-1.26,2.24-2.87,3.885-4.83,4.935c-1.96,1.05-4.27,1.575-6.93,1.575
		c-2.38,0-4.364-0.315-5.95-0.945c-1.587-0.63-2.87-1.528-3.85-2.695c-0.98-1.166-1.669-2.555-2.065-4.165
		c-0.397-1.61-0.595-3.395-0.595-5.355v-23.8h5.95v24.5c0,2.24,0.653,4.014,1.96,5.32c1.306,1.307,3.103,1.96,5.39,1.96
		c1.82,0,3.395-0.28,4.725-0.84s2.438-1.353,3.325-2.38c0.886-1.026,1.551-2.228,1.995-3.605c0.443-1.376,0.665-2.881,0.665-4.515
		v-20.44h5.95v36.19H-109.669z"/>
	<path d="M-89.509-511.665v5.74h0.14c2.473-4.386,6.393-6.58,11.76-6.58c2.38,0,4.363,0.327,5.95,0.98
		c1.586,0.654,2.87,1.564,3.85,2.73c0.98,1.167,1.668,2.555,2.065,4.165c0.396,1.61,0.595,3.395,0.595,5.355v23.8h-5.95v-24.5
		c0-2.24-0.654-4.013-1.96-5.32c-1.307-1.306-3.104-1.96-5.39-1.96c-1.82,0-3.395,0.28-4.725,0.84s-2.439,1.354-3.325,2.38
		c-0.887,1.027-1.552,2.229-1.995,3.605c-0.444,1.377-0.665,2.882-0.665,4.515v20.44h-5.95v-36.19H-89.509z"/>
	<path d="M-55.839-518.175v-7.28h5.95v7.28H-55.839z M-49.889-511.665v36.19h-5.95v-36.19H-49.889z"/>
	<path d="M-39.95-465.885c0.7,0,1.26-0.175,1.68-0.525s0.758-0.805,1.015-1.365c0.256-0.56,0.431-1.202,0.525-1.925
		c0.093-0.724,0.14-1.459,0.14-2.205v-12.74c0-1.633,0.245-3.021,0.735-4.165c0.49-1.143,1.061-2.088,1.715-2.835
		c0.653-0.746,1.318-1.306,1.995-1.68c0.676-0.373,1.225-0.606,1.645-0.7v-0.21c-0.42-0.046-0.969-0.233-1.645-0.56
		c-0.677-0.326-1.342-0.851-1.995-1.575c-0.654-0.723-1.225-1.668-1.715-2.835c-0.49-1.166-0.735-2.636-0.735-4.41v-12.67
		c0-0.793-0.047-1.551-0.14-2.275c-0.094-0.723-0.269-1.376-0.525-1.96c-0.257-0.583-0.595-1.05-1.015-1.4
		c-0.42-0.35-0.98-0.525-1.68-0.525h-3.5v-4.2h4.9c0.886,0,1.773,0.199,2.66,0.595c0.886,0.397,1.691,0.98,2.415,1.75
		c0.723,0.77,1.318,1.727,1.785,2.87c0.466,1.144,0.7,2.462,0.7,3.955v12.74c0,1.26,0.163,2.404,0.49,3.43
		c0.326,1.027,0.758,1.902,1.295,2.625c0.536,0.724,1.155,1.272,1.855,1.645c0.7,0.374,1.423,0.56,2.17,0.56v4.76
		c-0.747,0-1.47,0.199-2.17,0.595c-0.7,0.397-1.319,0.957-1.855,1.68c-0.537,0.724-0.969,1.587-1.295,2.59
		c-0.327,1.004-0.49,2.112-0.49,3.325v12.67c0,1.493-0.234,2.811-0.7,3.955c-0.467,1.143-1.062,2.1-1.785,2.87
		c-0.724,0.77-1.529,1.353-2.415,1.75c-0.887,0.396-1.774,0.595-2.66,0.595h-4.9v-4.2H-39.95z"/>
</g>
<g>
	<path d="M-11.085-514.976c0,1.26-0.96,2.1-2.1,2.28c-1.5,0-2.52-0.96-2.52-2.4c0-1.26,0.9-2.1,2.16-2.28c1.26,0,2.4,0.72,2.46,2.1
		V-514.976z M-8.266-509.036c0,1.38-1.08,2.22-2.46,2.22c-1.2,0-1.98-0.9-2.16-2.16c0-1.38,0.96-2.46,2.4-2.46
		c1.26,0,2.16,0.96,2.22,2.1V-509.036z M-5.446-503.096c0,1.38-1.02,2.16-2.46,2.16c-1.14,0-1.98-0.9-2.16-2.16
		c0-1.26,0.72-2.34,2.1-2.52c1.38,0,2.46,0.78,2.52,2.16V-503.096z M-5.026-494.996c-1.14,0-2.04-0.9-2.22-2.16
		c0-1.44,0.96-2.52,2.4-2.52c1.2,0,2.1,1.02,2.28,2.16C-2.566-496.136-3.406-494.996-5.026-494.996z M-2.206-489.117
		c-1.26,0-2.22-1.14-2.22-2.4c0-1.26,1.08-2.28,2.46-2.28c1.2,0,2.04,1.02,2.22,2.16C0.254-490.196-0.586-489.117-2.206-489.117z
		 M0.914-483.177c-1.44,0-2.52-0.96-2.52-2.4c0-1.38,1.08-2.28,2.46-2.28c1.14,0,2.04,0.9,2.22,2.16
		C3.074-484.437,2.354-483.357,0.914-483.177z M5.654-479.517c0,1.26-1.08,2.22-2.46,2.22s-2.22-1.08-2.22-2.46
		c0-1.26,1.08-2.22,2.46-2.22c1.14,0,2.04,0.9,2.22,2.16V-479.517z M6.434-476.457c1.2,0,2.28,1.08,2.28,2.22
		c0,1.38-1.08,2.4-2.22,2.4c-1.44,0-2.46-0.78-2.46-2.16v-0.36C4.214-475.557,5.234-476.457,6.434-476.457z M9.373-481.977
		c1.38,0,2.52,0.84,2.52,2.22s-1.02,2.46-2.28,2.46c-1.38,0-2.399-0.96-2.399-2.22v-0.3C7.394-481.077,8.174-481.977,9.373-481.977z
		 M11.833-487.857c1.38,0,2.46,0.84,2.46,2.22s-0.96,2.46-2.34,2.46c-1.38,0-2.28-1.08-2.28-2.22v-0.3
		C9.853-486.957,10.633-487.857,11.833-487.857z M14.713-493.797c1.26,0,2.4,1.02,2.4,2.22c0,1.38-0.84,2.46-2.22,2.46
		c-1.38,0-2.4-0.96-2.4-2.22v-0.3C12.673-492.776,13.513-493.797,14.713-493.797z M17.533-499.676c1.26,0,2.4,0.84,2.4,2.22
		c0,1.44-0.84,2.46-2.22,2.46c-1.5,0-2.4-1.14-2.4-2.52C15.493-498.656,16.333-499.676,17.533-499.676z M18.313-503.216
		c0-1.38,1.14-2.34,2.34-2.34c1.38,0,2.28,1.26,2.28,2.399c0,1.38-1.26,2.28-2.4,2.28c-0.36,0-0.6-0.06-0.78-0.12
		C18.853-501.416,18.313-502.316,18.313-503.216z M23.173-511.436c1.5,0,2.46,1.14,2.46,2.34c0,1.38-1.08,2.28-2.28,2.28
		c-1.5,0-2.4-1.08-2.4-2.52C21.133-510.476,22.033-511.436,23.173-511.436z M26.173-517.376c1.38,0,2.28,1.2,2.28,2.46
		s-1.14,2.22-2.4,2.22c-1.2,0-2.28-1.08-2.28-2.28v-0.3C23.953-516.476,24.973-517.376,26.173-517.376z"/>
	<path d="M36.494-516.836c1.38,0,2.34,1.14,2.34,2.34c0,1.38-1.14,2.34-2.34,2.34c-1.38,0-2.34-1.14-2.34-2.4
		c0-0.24-0.06-0.54,0.12-0.78C34.694-516.235,35.534-516.836,36.494-516.836z M36.494-509.936c1.38,0,2.34,1.14,2.34,2.34
		c0,1.38-1.14,2.34-2.34,2.34c-1.38,0-2.34-1.08-2.34-2.34c0-0.24,0.06-0.54,0.18-0.84
		C34.634-509.336,35.534-509.936,36.494-509.936z M36.494-503.276c1.38,0,2.34,1.14,2.34,2.34c0,1.38-1.14,2.34-2.34,2.34
		c-1.38,0-2.34-1.08-2.34-2.34c0-0.24,0.06-0.54,0.18-0.84C34.634-502.676,35.534-503.276,36.494-503.276z M36.554-496.736
		c1.38,0,2.28,1.14,2.28,2.34c0,1.38-1.14,2.34-2.34,2.34c-1.38,0-2.34-1.14-2.34-2.34c0-0.24,0.06-0.54,0.18-0.84
		C34.634-496.196,35.594-496.736,36.554-496.736z M36.554-490.017c1.38,0,2.28,1.14,2.28,2.28c0,1.38-1.08,2.4-2.34,2.4
		c-1.38,0-2.34-1.14-2.34-2.34c0-0.24,0.06-0.54,0.18-0.84C34.634-489.477,35.594-490.017,36.554-490.017z M36.494-483.357
		c1.38,0,2.34,1.14,2.34,2.34c0,1.38-1.14,2.34-2.34,2.34c-1.38,0-2.34-1.08-2.34-2.34c0-0.24,0.06-0.54,0.18-0.84
		C34.634-482.757,35.534-483.357,36.494-483.357z M36.494-476.997c1.38,0,2.34,1.14,2.34,2.34c0,1.38-1.14,2.34-2.4,2.34
		c-1.38,0-2.28-1.14-2.28-2.34c0-0.24,0.06-0.54,0.18-0.84C34.634-476.397,35.534-476.997,36.494-476.997z M43.093-516.896
		c1.38,0,2.28,1.2,2.28,2.34c0,1.38-1.14,2.34-2.28,2.34c-1.38,0-2.34-1.2-2.34-2.4c0-0.24-0.06-0.54,0.12-0.78
		C41.293-516.356,42.133-516.896,43.093-516.896z M43.093-496.857c1.38,0,2.28,1.2,2.28,2.4c0,1.38-1.14,2.28-2.28,2.28
		c-1.38,0-2.34-1.2-2.34-2.4c0-0.24-0.06-0.54,0.12-0.78C41.293-496.317,42.133-496.857,43.093-496.857z M43.033-477.057
		c1.38,0,2.34,1.14,2.34,2.4c0,1.38-1.14,2.28-2.28,2.28c-1.38,0-2.34-1.14-2.34-2.4c0-0.24-0.06-0.54,0.12-0.78
		C41.293-476.577,42.014-477.057,43.033-477.057z M49.873-516.896c1.38,0,2.28,1.14,2.28,2.28c0,1.38-1.14,2.4-2.34,2.4
		c-1.38,0-2.34-1.14-2.34-2.34c0-0.24,0.06-0.54,0.18-0.84C47.953-516.356,48.913-516.896,49.873-516.896z M49.873-496.857
		c1.38,0,2.28,1.14,2.28,2.28c0,1.38-1.08,2.4-2.34,2.4c-1.38,0-2.34-1.14-2.34-2.34c0-0.24,0.06-0.54,0.18-0.84
		C47.953-496.317,48.913-496.857,49.873-496.857z M49.813-477.057c1.38,0,2.34,1.14,2.34,2.34c0,1.38-1.14,2.34-2.34,2.34
		c-1.38,0-2.34-1.08-2.34-2.34c0-0.24,0.06-0.54,0.18-0.84C47.953-476.457,48.853-477.057,49.813-477.057z M56.653-516.896
		c1.38,0,2.28,1.2,2.28,2.34c0,1.38-1.2,2.34-2.34,2.34c-1.38,0-2.34-1.14-2.34-2.34c0-0.24,0.06-0.54,0.18-0.84
		C54.853-516.356,55.693-516.896,56.653-516.896z M56.653-496.857c1.38,0,2.28,1.2,2.28,2.4c0,1.38-1.14,2.28-2.34,2.28
		c-1.38,0-2.34-1.14-2.34-2.34c0-0.24,0.06-0.54,0.18-0.84C54.853-496.317,55.693-496.857,56.653-496.857z M56.593-477.057
		c1.38,0,2.34,1.14,2.34,2.4c0,1.38-1.14,2.28-2.34,2.28c-1.38,0-2.34-1.08-2.34-2.34c0-0.24,0.06-0.54,0.18-0.84
		C54.853-476.577,55.573-477.057,56.593-477.057z M63.133-516.896c1.38,0,2.34,1.2,2.34,2.34c0,1.38-1.2,2.34-2.34,2.34
		c-1.38,0-2.34-1.2-2.34-2.4c0-0.24-0.06-0.54,0.12-0.78C61.332-516.356,62.173-516.896,63.133-516.896z M63.133-496.857
		c1.38,0,2.34,1.14,2.34,2.34c0,1.38-1.2,2.34-2.34,2.34c-1.38,0-2.34-1.2-2.34-2.4c0-0.24-0.06-0.54,0.12-0.78
		C61.332-496.317,62.173-496.857,63.133-496.857z M63.073-477.057c1.38,0,2.4,1.14,2.4,2.34c0,1.38-1.2,2.34-2.34,2.34
		c-1.38,0-2.34-1.14-2.34-2.4c0-0.24-0.06-0.54,0.12-0.78C61.332-476.577,62.053-477.057,63.073-477.057z"/>
	<path d="M76.154-509.696c1.38,0,2.28,1.14,2.28,2.28c0,1.38-1.02,2.34-2.22,2.34c-1.38,0-2.34-1.14-2.34-2.399
		c0-0.24-0.06-0.54,0.12-0.78C74.414-509.156,75.194-509.696,76.154-509.696z M76.154-496.676c1.38,0,2.28,1.14,2.28,2.28
		c0,1.38-1.02,2.34-2.22,2.34c-1.38,0-2.34-1.14-2.34-2.34c0-0.24-0.06-0.54,0.12-0.78
		C74.414-496.196,75.134-496.676,76.154-496.676z M76.154-516.536c1.38,0,2.28,1.2,2.28,2.4c0,1.38-1.14,2.22-2.28,2.22
		c-1.44,0-2.28-1.14-2.28-2.28c0-0.36,0.06-0.66,0.12-0.84C74.294-515.936,75.194-516.536,76.154-516.536z M76.154-503.096
		c1.44,0,2.28,1.08,2.28,2.28c0,1.38-1.14,2.28-2.28,2.28c-1.38,0-2.28-1.14-2.28-2.28c0-0.36,0.06-0.6,0.12-0.78
		C74.414-502.556,75.254-503.096,76.154-503.096z M76.214-490.017c1.38,0,2.22,1.02,2.22,2.28c0,1.38-1.14,2.28-2.28,2.28
		c-1.38,0-2.28-1.14-2.28-2.28c0-0.36,0.06-0.6,0.12-0.78C74.414-489.477,75.254-490.017,76.214-490.017z M76.214-483.237
		c1.38,0,2.22,1.02,2.22,2.28c0,1.38-1.14,2.28-2.28,2.28c-1.38,0-2.28-1.14-2.28-2.28c0-0.36,0.06-0.6,0.12-0.78
		C74.414-482.697,75.254-483.237,76.214-483.237z M76.214-476.817c1.38,0,2.22,1.02,2.22,2.28c0,1.38-1.14,2.28-2.28,2.28
		c-1.38,0-2.28-1.14-2.28-2.28c0-0.36,0.06-0.6,0.12-0.78C74.414-476.277,75.254-476.817,76.214-476.817z M85.093-487.917
		c0,1.44-0.9,2.4-2.16,2.4c-1.38,0-2.4-0.84-2.4-2.28c0-1.38,1.08-2.28,2.28-2.28C84.193-490.017,85.093-489.117,85.093-487.917z
		 M80.594-514.556c0-1.14,0.84-2.28,2.22-2.28c1.2,0,2.4,0.9,2.4,2.28c0,1.2-0.96,2.34-2.34,2.34c-0.9,0-1.74-0.6-2.16-1.5
		C80.654-513.896,80.594-514.136,80.594-514.556z M87.193-514.496c0-1.14,0.9-2.34,2.28-2.34c1.14,0,2.34,0.84,2.34,2.22
		c0,1.26-0.96,2.4-2.34,2.4c-0.9,0-1.74-0.6-2.16-1.5C87.133-513.956,87.193-514.255,87.193-514.496z M90.013-490.017
		c1.38,0,2.28,1.14,2.28,2.28c0,1.38-1.2,2.28-2.34,2.28c-1.38,0-2.22-1.14-2.22-2.28c0-0.24-0.06-0.54,0.12-0.78
		C88.153-489.477,89.053-490.017,90.013-490.017z M94.813-485.337c1.2,0,2.34,0.96,2.34,2.34c0,1.14-0.9,2.28-2.28,2.28
		c-1.14,0-2.28-0.96-2.28-2.34c0-0.9,0.48-1.68,1.38-2.1C94.273-485.277,94.513-485.337,94.813-485.337z M93.913-514.195
		c0-1.14,0.9-2.34,2.28-2.34c1.14,0,2.34,0.96,2.34,2.34c0,1.14-0.84,2.28-2.34,2.28c-0.9,0-1.8-0.48-2.1-1.44
		C93.973-513.656,93.913-513.896,93.913-514.195z M96.733-491.276c1.38,0,2.34,1.2,2.34,2.34c0,1.26-1.08,2.28-2.28,2.28
		c-1.38,0-2.34-1.08-2.34-2.28c0-0.24,0.06-0.54,0.18-0.84C94.933-490.677,95.833-491.276,96.733-491.276z M99.613-480.897
		c1.2,0,2.34,0.96,2.34,2.34c0,1.2-0.9,2.28-2.28,2.28c-1.2,0-2.34-0.96-2.34-2.34c0-0.96,0.48-1.68,1.44-2.1
		C99.073-480.837,99.313-480.897,99.613-480.897z M99.493-510.956c0-1.2,0.96-2.34,2.34-2.34c1.2,0,2.28,0.96,2.28,2.34
		c0,1.2-0.96,2.28-2.34,2.28c-0.9,0-1.8-0.54-2.1-1.44C99.553-510.416,99.493-510.656,99.493-510.956z M102.193-494.877
		c1.26,0,2.28,1.14,2.28,2.28c0,1.44-1.2,2.28-2.34,2.28c-1.44,0-2.28-1.08-2.28-2.28c0-0.36,0.06-0.66,0.12-0.84
		C100.393-494.337,101.233-494.877,102.193-494.877z M104.232-476.397c1.14,0,2.28,0.84,2.28,2.22c0,1.2-0.96,2.34-2.34,2.34
		c-1.14,0-2.28-0.84-2.28-2.28c0-1.02,0.48-1.68,1.44-2.1C103.633-476.337,103.933-476.397,104.232-476.397z M102.373-498.596
		c0-1.14,0.96-2.22,2.22-2.22c1.14,0,2.4,0.96,2.4,2.34c0,1.2-0.96,2.22-2.34,2.22c-0.9,0-1.8-0.48-2.1-1.44
		C102.433-497.996,102.373-498.297,102.373-498.596z M102.733-505.076c0-1.2,0.9-2.28,2.28-2.28c1.26,0,2.28,0.84,2.28,2.22
		c0,1.2-0.84,2.34-2.22,2.34c-0.96,0-1.8-0.54-2.22-1.5C102.793-504.476,102.733-504.716,102.733-505.076z"/>
	<path d="M116.773-510.716c1.44,0,2.4,1.08,2.4,2.34c0,1.5-1.14,2.4-2.4,2.4c-1.44,0-2.34-1.08-2.34-2.22c0-0.3,0.06-0.66,0.18-1.02
		C114.913-510.116,115.813-510.716,116.773-510.716z M117.433-480.057c1.44,0,2.46,1.08,2.46,2.34c0,1.38-1.14,2.459-2.34,2.459
		c-1.5,0-2.52-1.2-2.52-2.4c0-0.3,0.06-0.6,0.18-0.9C115.633-479.457,116.473-480.057,117.433-480.057z M117.853-503.996
		c1.5,0,2.46,1.08,2.46,2.22c0,1.62-1.38,2.58-2.52,2.58c-1.5,0-2.4-1.14-2.4-2.28c0-0.42,0.06-0.66,0.24-0.96
		C116.053-503.396,116.893-503.996,117.853-503.996z M121.513-516.056c1.38,0,2.4,1.14,2.4,2.28c0,1.62-1.2,2.58-2.34,2.58
		c-1.62,0-2.46-1.26-2.46-2.4c0-0.3,0.06-0.6,0.18-0.9C119.713-515.456,120.553-516.056,121.513-516.056z M123.613-499.616
		c1.38,0,2.34,1.08,2.34,2.28c0,1.44-0.96,2.4-2.34,2.4c-1.44,0-2.4-1.14-2.4-2.34c0-0.24,0.06-0.54,0.18-0.84
		C121.693-499.076,122.653-499.616,123.613-499.616z M124.273-477.117c1.38,0,2.4,1.2,2.4,2.4c0,1.44-1.2,2.46-2.34,2.46
		c-1.38,0-2.4-1.02-2.4-2.22c0-0.42,0.06-0.78,0.24-1.08C122.473-476.457,123.313-477.117,124.273-477.117z M128.772-517.796
		c1.26,0,2.28,1.08,2.28,2.28c0,1.38-1.08,2.46-2.46,2.46s-2.34-1.14-2.34-2.34c0-0.3,0.06-0.6,0.18-0.9
		C126.852-517.255,127.752-517.796,128.772-517.796z M130.752-497.636c1.38,0,2.46,1.08,2.46,2.28c0,1.26-1.14,2.4-2.4,2.4
		c-1.38,0-2.34-1.02-2.34-2.22c0-0.3,0.06-0.6,0.18-0.9C128.953-497.216,129.792-497.636,130.752-497.636z M132.132-476.277
		c1.38,0,2.28,1.14,2.28,2.4c0,1.439-1.2,2.34-2.459,2.34c-1.38,0-2.34-1.08-2.34-2.28c0-0.3,0.06-0.6,0.18-0.9
		C130.212-475.677,131.112-476.277,132.132-476.277z M135.792-517.135c1.38,0,2.28,1.14,2.28,2.34c0,1.38-1.08,2.46-2.28,2.46
		c-1.38,0-2.4-1.08-2.4-2.28c0-0.3,0.06-0.6,0.18-0.9C133.992-516.536,134.832-517.135,135.792-517.135z M137.832-495.236
		c1.5,0,2.34,1.2,2.34,2.22c0,1.5-1.08,2.52-2.459,2.52c-1.38,0-2.28-1.14-2.28-2.4c0-0.3,0.06-0.6,0.18-0.9
		C136.032-494.696,136.872-495.236,137.832-495.236z M139.332-478.377c1.38,0,2.28,1.14,2.28,2.4c0,1.38-1.08,2.46-2.46,2.46
		s-2.28-1.14-2.28-2.4c0-0.3,0.06-0.6,0.18-0.9C137.352-477.777,138.312-478.377,139.332-478.377z M142.452-513.536
		c1.62,0,2.52,1.2,2.52,2.34c0,1.44-1.2,2.4-2.459,2.4c-1.44,0-2.34-1.14-2.34-2.34c0-0.36,0.06-0.66,0.12-0.84
		C140.712-512.996,141.432-513.536,142.452-513.536z M143.292-490.797c1.44,0,2.4,1.14,2.4,2.34c0,1.44-1.02,2.46-2.4,2.46
		c-1.44,0-2.4-1.02-2.4-2.28c0-0.3,0.06-0.66,0.18-1.02C141.372-490.196,142.272-490.797,143.292-490.797z M144.132-484.017
		c1.38,0,2.4,1.08,2.4,2.28c0,1.38-0.96,2.52-2.34,2.52c-1.62,0-2.52-1.14-2.52-2.34c0-0.3,0.06-0.6,0.18-0.9
		C142.272-483.417,143.172-484.017,144.132-484.017z"/>
	<path d="M157.692-516.836c1.38,0,2.34,1.14,2.34,2.34c0,1.38-1.14,2.34-2.34,2.34c-1.38,0-2.34-1.14-2.34-2.4
		c0-0.24-0.06-0.54,0.12-0.78C155.893-516.235,156.732-516.836,157.692-516.836z M157.692-509.936c1.38,0,2.34,1.14,2.34,2.34
		c0,1.38-1.14,2.34-2.34,2.34c-1.38,0-2.34-1.08-2.34-2.34c0-0.24,0.06-0.54,0.18-0.84
		C155.832-509.336,156.732-509.936,157.692-509.936z M157.692-503.276c1.38,0,2.34,1.14,2.34,2.34c0,1.38-1.14,2.34-2.34,2.34
		c-1.38,0-2.34-1.08-2.34-2.34c0-0.24,0.06-0.54,0.18-0.84C155.832-502.676,156.732-503.276,157.692-503.276z M157.752-496.736
		c1.38,0,2.28,1.14,2.28,2.34c0,1.38-1.14,2.34-2.34,2.34c-1.38,0-2.34-1.14-2.34-2.34c0-0.24,0.06-0.54,0.18-0.84
		C155.832-496.196,156.792-496.736,157.752-496.736z M157.752-490.017c1.38,0,2.28,1.14,2.28,2.28c0,1.38-1.08,2.4-2.34,2.4
		c-1.38,0-2.34-1.14-2.34-2.34c0-0.24,0.06-0.54,0.18-0.84C155.832-489.477,156.792-490.017,157.752-490.017z M157.692-483.357
		c1.38,0,2.34,1.14,2.34,2.34c0,1.38-1.14,2.34-2.34,2.34c-1.38,0-2.34-1.08-2.34-2.34c0-0.24,0.06-0.54,0.18-0.84
		C155.832-482.757,156.732-483.357,157.692-483.357z M157.692-476.997c1.38,0,2.34,1.14,2.34,2.34c0,1.38-1.14,2.34-2.4,2.34
		c-1.38,0-2.28-1.14-2.28-2.34c0-0.24,0.06-0.54,0.18-0.84C155.832-476.397,156.732-476.997,157.692-476.997z M164.292-516.896
		c1.38,0,2.28,1.2,2.28,2.34c0,1.38-1.14,2.34-2.28,2.34c-1.38,0-2.34-1.2-2.34-2.4c0-0.24-0.06-0.54,0.12-0.78
		C162.492-516.356,163.332-516.896,164.292-516.896z M164.292-496.857c1.38,0,2.28,1.2,2.28,2.4c0,1.38-1.14,2.28-2.28,2.28
		c-1.38,0-2.34-1.2-2.34-2.4c0-0.24-0.06-0.54,0.12-0.78C162.492-496.317,163.332-496.857,164.292-496.857z M164.232-477.057
		c1.38,0,2.34,1.14,2.34,2.4c0,1.38-1.14,2.28-2.28,2.28c-1.38,0-2.34-1.14-2.34-2.4c0-0.24-0.06-0.54,0.12-0.78
		C162.492-476.577,163.212-477.057,164.232-477.057z M171.072-516.896c1.38,0,2.28,1.14,2.28,2.28c0,1.38-1.14,2.4-2.34,2.4
		c-1.38,0-2.34-1.14-2.34-2.34c0-0.24,0.06-0.54,0.18-0.84C169.152-516.356,170.112-516.896,171.072-516.896z M171.072-496.857
		c1.38,0,2.28,1.14,2.28,2.28c0,1.38-1.08,2.4-2.34,2.4c-1.38,0-2.34-1.14-2.34-2.34c0-0.24,0.06-0.54,0.18-0.84
		C169.152-496.317,170.112-496.857,171.072-496.857z M171.012-477.057c1.38,0,2.34,1.14,2.34,2.34c0,1.38-1.14,2.34-2.34,2.34
		c-1.38,0-2.34-1.08-2.34-2.34c0-0.24,0.06-0.54,0.18-0.84C169.152-476.457,170.052-477.057,171.012-477.057z M177.852-516.896
		c1.38,0,2.28,1.2,2.28,2.34c0,1.38-1.2,2.34-2.34,2.34c-1.38,0-2.34-1.14-2.34-2.34c0-0.24,0.06-0.54,0.18-0.84
		C176.052-516.356,176.892-516.896,177.852-516.896z M177.852-496.857c1.38,0,2.28,1.2,2.28,2.4c0,1.38-1.14,2.28-2.34,2.28
		c-1.38,0-2.34-1.14-2.34-2.34c0-0.24,0.06-0.54,0.18-0.84C176.052-496.317,176.892-496.857,177.852-496.857z M177.791-477.057
		c1.38,0,2.34,1.14,2.34,2.4c0,1.38-1.14,2.28-2.34,2.28c-1.38,0-2.34-1.08-2.34-2.34c0-0.24,0.06-0.54,0.18-0.84
		C176.052-476.577,176.771-477.057,177.791-477.057z M184.331-516.896c1.38,0,2.34,1.2,2.34,2.34c0,1.38-1.2,2.34-2.34,2.34
		c-1.38,0-2.34-1.2-2.34-2.4c0-0.24-0.06-0.54,0.12-0.78C182.531-516.356,183.371-516.896,184.331-516.896z M184.331-496.857
		c1.38,0,2.34,1.14,2.34,2.34c0,1.38-1.2,2.34-2.34,2.34c-1.38,0-2.34-1.2-2.34-2.4c0-0.24-0.06-0.54,0.12-0.78
		C182.531-496.317,183.371-496.857,184.331-496.857z M184.271-477.057c1.38,0,2.4,1.14,2.4,2.34c0,1.38-1.2,2.34-2.34,2.34
		c-1.38,0-2.34-1.14-2.34-2.4c0-0.24-0.06-0.54,0.12-0.78C182.531-476.577,183.251-477.057,184.271-477.057z"/>
</g>
<g>
	<rect x="58.182" y="-242.455" fill="none" width="216.364" height="89.091"/>
	<path d="M77.606-239.231c-0.75,0-1.35,0.188-1.8,0.562s-0.813,0.863-1.087,1.463c-0.275,0.6-0.463,1.288-0.562,2.062
		c-0.101,0.775-0.15,1.563-0.15,2.362v13.725c0,1.75-0.263,3.238-0.788,4.462c-0.525,1.226-1.138,2.238-1.837,3.038
		c-0.701,0.8-1.414,1.4-2.138,1.8c-0.726,0.401-1.312,0.65-1.763,0.75v0.225c0.45,0.05,1.037,0.251,1.763,0.6
		c0.724,0.35,1.437,0.913,2.138,1.688c0.699,0.776,1.312,1.788,1.837,3.038c0.525,1.25,0.788,2.825,0.788,4.725v13.651
		c0,0.75,0.049,1.512,0.15,2.287c0.1,0.774,0.287,1.475,0.562,2.1c0.274,0.625,0.637,1.125,1.087,1.5s1.05,0.562,1.8,0.562h3.75v4.5
		h-5.25c-0.95,0-1.9-0.213-2.85-0.637c-0.951-0.426-1.813-1.051-2.588-1.875c-0.775-0.826-1.413-1.852-1.912-3.076
		c-0.5-1.225-0.75-2.637-0.75-4.236v-13.576c0-1.35-0.176-2.574-0.525-3.674c-0.35-1.1-0.813-2.025-1.387-2.775
		c-0.576-0.75-1.238-1.324-1.988-1.725c-0.75-0.4-1.525-0.6-2.325-0.6v-5.1c0.799,0,1.575-0.212,2.325-0.638
		c0.75-0.424,1.412-1.024,1.988-1.8c0.574-0.774,1.037-1.712,1.387-2.812c0.35-1.099,0.525-2.299,0.525-3.6v-13.65
		c0-1.6,0.25-3.012,0.75-4.237c0.499-1.225,1.137-2.25,1.912-3.075c0.775-0.825,1.637-1.45,2.588-1.875
		c0.949-0.424,1.899-0.638,2.85-0.638h5.25v4.5H77.606z"/>
	<path d="M114.056-188.906v-6.149h-0.15c-1.35,2.399-3.075,4.163-5.175,5.288c-2.1,1.125-4.575,1.688-7.425,1.688
		c-2.55,0-4.676-0.338-6.375-1.014c-1.7-0.674-3.075-1.637-4.125-2.887c-1.05-1.25-1.788-2.738-2.212-4.463
		c-0.425-1.725-0.638-3.637-0.638-5.737v-25.5h6.375v26.25c0,2.4,0.7,4.301,2.1,5.7c1.399,1.4,3.325,2.1,5.775,2.1
		c1.95,0,3.638-0.3,5.062-0.9c1.425-0.6,2.612-1.449,3.562-2.549c0.949-1.1,1.662-2.388,2.138-3.863
		c0.475-1.474,0.712-3.086,0.712-4.837v-21.9h6.375v38.774H114.056z"/>
	<path d="M135.656-227.68v6.15h0.15c2.649-4.699,6.85-7.05,12.6-7.05c2.55,0,4.675,0.35,6.375,1.05
		c1.699,0.701,3.075,1.676,4.125,2.925c1.05,1.25,1.787,2.738,2.213,4.463c0.424,1.725,0.637,3.637,0.637,5.737v25.5h-6.375v-26.25
		c0-2.4-0.701-4.3-2.1-5.7c-1.4-1.399-3.326-2.1-5.775-2.1c-1.95,0-3.637,0.3-5.062,0.9c-1.425,0.6-2.613,1.451-3.562,2.55
		c-0.95,1.101-1.663,2.388-2.137,3.863c-0.476,1.475-0.713,3.088-0.713,4.837v21.899h-6.375v-38.774H135.656z"/>
	<path d="M171.731-234.655v-7.8h6.375v7.8H171.731z M178.106-227.68v38.774h-6.375v-38.774H178.106z"/>
	<path d="M188.755-178.631c0.75,0,1.35-0.188,1.8-0.562c0.45-0.375,0.812-0.862,1.087-1.463c0.274-0.6,0.462-1.287,0.562-2.062
		c0.1-0.775,0.15-1.562,0.15-2.361v-13.651c0-1.75,0.263-3.236,0.788-4.462c0.525-1.225,1.137-2.237,1.837-3.038
		c0.7-0.799,1.412-1.399,2.138-1.8c0.724-0.399,1.312-0.649,1.762-0.75v-0.225c-0.45-0.049-1.038-0.25-1.762-0.6
		c-0.726-0.349-1.438-0.912-2.138-1.688c-0.701-0.774-1.312-1.787-1.837-3.037c-0.525-1.25-0.788-2.824-0.788-4.725v-13.575
		c0-0.85-0.05-1.662-0.15-2.438c-0.101-0.774-0.288-1.474-0.562-2.1c-0.275-0.625-0.638-1.125-1.087-1.5
		c-0.45-0.375-1.05-0.562-1.8-0.562h-3.75v-4.5h5.25c0.949,0,1.9,0.213,2.85,0.638c0.949,0.425,1.812,1.05,2.587,1.875
		c0.775,0.825,1.412,1.851,1.913,3.075c0.5,1.226,0.75,2.638,0.75,4.237v13.65c0,1.35,0.175,2.576,0.525,3.675
		c0.35,1.1,0.812,2.038,1.388,2.812c0.574,0.775,1.237,1.363,1.987,1.762c0.75,0.401,1.525,0.6,2.325,0.6v5.1
		c-0.8,0-1.575,0.213-2.325,0.637c-0.75,0.426-1.413,1.025-1.987,1.8c-0.575,0.776-1.038,1.7-1.388,2.775
		c-0.35,1.076-0.525,2.263-0.525,3.562v13.576c0,1.6-0.25,3.012-0.75,4.236c-0.5,1.225-1.138,2.25-1.913,3.076
		c-0.775,0.824-1.638,1.449-2.587,1.875c-0.95,0.424-1.901,0.637-2.85,0.637h-5.25v-4.5H188.755z"/>
</g>
<g>
	<path d="M216.915-225.976c0,1.26-0.96,2.1-2.1,2.28c-1.5,0-2.52-0.96-2.52-2.4c0-1.26,0.9-2.1,2.16-2.28c1.26,0,2.4,0.72,2.46,2.1
		V-225.976z M219.734-220.036c0,1.38-1.08,2.22-2.46,2.22c-1.2,0-1.98-0.9-2.16-2.16c0-1.38,0.96-2.46,2.4-2.46
		c1.26,0,2.16,0.96,2.22,2.1V-220.036z M222.554-214.096c0,1.38-1.02,2.16-2.46,2.16c-1.14,0-1.98-0.9-2.16-2.16
		c0-1.26,0.72-2.34,2.1-2.52c1.38,0,2.46,0.78,2.52,2.16V-214.096z M222.974-205.996c-1.14,0-2.04-0.9-2.22-2.16
		c0-1.44,0.96-2.52,2.4-2.52c1.2,0,2.1,1.02,2.28,2.16C225.434-207.136,224.594-205.996,222.974-205.996z M225.794-200.117
		c-1.26,0-2.22-1.14-2.22-2.4c0-1.26,1.08-2.28,2.46-2.28c1.2,0,2.04,1.02,2.22,2.16
		C228.254-201.196,227.414-200.117,225.794-200.117z M228.914-194.176c-1.44,0-2.52-0.96-2.52-2.4c0-1.38,1.08-2.28,2.46-2.28
		c1.14,0,2.04,0.9,2.22,2.16C231.074-195.436,230.354-194.357,228.914-194.176z M233.654-190.517c0,1.261-1.08,2.221-2.46,2.221
		s-2.22-1.08-2.22-2.46c0-1.261,1.08-2.221,2.46-2.221c1.14,0,2.04,0.9,2.22,2.16V-190.517z M234.434-187.457
		c1.2,0,2.28,1.08,2.28,2.22c0,1.38-1.08,2.399-2.22,2.399c-1.44,0-2.46-0.779-2.46-2.159v-0.36
		C232.214-186.557,233.234-187.457,234.434-187.457z M237.373-192.977c1.38,0,2.52,0.841,2.52,2.221s-1.02,2.46-2.28,2.46
		c-1.38,0-2.399-0.96-2.399-2.221v-0.3C235.394-192.077,236.174-192.977,237.373-192.977z M239.833-198.857
		c1.38,0,2.46,0.84,2.46,2.22c0,1.38-0.96,2.46-2.34,2.46c-1.38,0-2.28-1.08-2.28-2.22v-0.301
		C237.853-197.957,238.633-198.857,239.833-198.857z M242.713-204.797c1.26,0,2.4,1.02,2.4,2.22c0,1.38-0.84,2.46-2.22,2.46
		c-1.38,0-2.4-0.96-2.4-2.22v-0.3C240.673-203.777,241.513-204.797,242.713-204.797z M245.533-210.676c1.26,0,2.4,0.84,2.4,2.22
		c0,1.44-0.84,2.46-2.22,2.46c-1.5,0-2.4-1.14-2.4-2.52C243.493-209.656,244.333-210.676,245.533-210.676z M246.313-214.216
		c0-1.38,1.14-2.34,2.34-2.34c1.38,0,2.28,1.26,2.28,2.399c0,1.38-1.26,2.28-2.4,2.28c-0.36,0-0.6-0.06-0.78-0.12
		C246.853-212.416,246.313-213.316,246.313-214.216z M251.173-222.436c1.5,0,2.46,1.14,2.46,2.34c0,1.38-1.08,2.28-2.28,2.28
		c-1.5,0-2.4-1.08-2.4-2.52C249.133-221.476,250.033-222.436,251.173-222.436z M254.173-228.376c1.38,0,2.28,1.2,2.28,2.46
		s-1.14,2.22-2.4,2.22c-1.2,0-2.28-1.08-2.28-2.28v-0.3C251.953-227.476,252.973-228.376,254.173-228.376z"/>
	<path d="M264.494-227.836c1.38,0,2.34,1.14,2.34,2.34c0,1.38-1.14,2.34-2.34,2.34c-1.38,0-2.34-1.14-2.34-2.4
		c0-0.24-0.06-0.54,0.12-0.78C262.694-227.235,263.534-227.836,264.494-227.836z M264.494-220.936c1.38,0,2.34,1.14,2.34,2.34
		c0,1.38-1.14,2.34-2.34,2.34c-1.38,0-2.34-1.08-2.34-2.34c0-0.24,0.06-0.54,0.18-0.84
		C262.634-220.336,263.534-220.936,264.494-220.936z M264.494-214.276c1.38,0,2.34,1.14,2.34,2.34c0,1.38-1.14,2.34-2.34,2.34
		c-1.38,0-2.34-1.08-2.34-2.34c0-0.24,0.06-0.54,0.18-0.84C262.634-213.676,263.534-214.276,264.494-214.276z M264.554-207.736
		c1.38,0,2.28,1.14,2.28,2.34c0,1.38-1.14,2.34-2.34,2.34c-1.38,0-2.34-1.14-2.34-2.34c0-0.24,0.06-0.54,0.18-0.84
		C262.634-207.196,263.594-207.736,264.554-207.736z M264.554-201.017c1.38,0,2.28,1.14,2.28,2.28c0,1.381-1.08,2.4-2.34,2.4
		c-1.38,0-2.34-1.14-2.34-2.34c0-0.24,0.06-0.54,0.18-0.84C262.634-200.477,263.594-201.017,264.554-201.017z M264.494-194.357
		c1.38,0,2.34,1.141,2.34,2.34c0,1.381-1.14,2.341-2.34,2.341c-1.38,0-2.34-1.08-2.34-2.341c0-0.239,0.06-0.539,0.18-0.84
		C262.634-193.756,263.534-194.357,264.494-194.357z M264.494-187.997c1.38,0,2.34,1.14,2.34,2.34c0,1.38-1.14,2.34-2.4,2.34
		c-1.38,0-2.28-1.14-2.28-2.34c0-0.24,0.06-0.54,0.18-0.84C262.634-187.397,263.534-187.997,264.494-187.997z M271.093-227.896
		c1.38,0,2.28,1.2,2.28,2.34c0,1.38-1.14,2.34-2.28,2.34c-1.38,0-2.34-1.2-2.34-2.4c0-0.24-0.06-0.54,0.12-0.78
		C269.293-227.356,270.133-227.896,271.093-227.896z M271.093-207.857c1.38,0,2.28,1.2,2.28,2.4c0,1.38-1.14,2.28-2.28,2.28
		c-1.38,0-2.34-1.2-2.34-2.4c0-0.24-0.06-0.54,0.12-0.78C269.293-207.317,270.133-207.857,271.093-207.857z M271.033-188.057
		c1.38,0,2.34,1.141,2.34,2.4c0,1.38-1.14,2.279-2.28,2.279c-1.38,0-2.34-1.14-2.34-2.399c0-0.24-0.06-0.54,0.12-0.78
		C269.293-187.577,270.014-188.057,271.033-188.057z M277.873-227.896c1.38,0,2.28,1.14,2.28,2.28c0,1.38-1.14,2.4-2.34,2.4
		c-1.38,0-2.34-1.14-2.34-2.34c0-0.24,0.06-0.54,0.18-0.84C275.953-227.356,276.913-227.896,277.873-227.896z M277.873-207.857
		c1.38,0,2.28,1.14,2.28,2.28c0,1.38-1.08,2.4-2.34,2.4c-1.38,0-2.34-1.14-2.34-2.34c0-0.24,0.06-0.54,0.18-0.84
		C275.953-207.317,276.913-207.857,277.873-207.857z M277.813-188.057c1.38,0,2.34,1.141,2.34,2.34c0,1.38-1.14,2.34-2.34,2.34
		c-1.38,0-2.34-1.079-2.34-2.34c0-0.239,0.06-0.54,0.18-0.84C275.953-187.457,276.853-188.057,277.813-188.057z M284.653-227.896
		c1.38,0,2.28,1.2,2.28,2.34c0,1.38-1.2,2.34-2.34,2.34c-1.38,0-2.34-1.14-2.34-2.34c0-0.24,0.06-0.54,0.18-0.84
		C282.853-227.356,283.693-227.896,284.653-227.896z M284.653-207.857c1.38,0,2.28,1.2,2.28,2.4c0,1.38-1.14,2.28-2.34,2.28
		c-1.38,0-2.34-1.14-2.34-2.34c0-0.24,0.06-0.54,0.18-0.84C282.853-207.317,283.693-207.857,284.653-207.857z M284.593-188.057
		c1.38,0,2.34,1.141,2.34,2.4c0,1.38-1.14,2.279-2.34,2.279c-1.38,0-2.34-1.079-2.34-2.34c0-0.239,0.06-0.54,0.18-0.84
		C282.853-187.577,283.573-188.057,284.593-188.057z M291.133-227.896c1.38,0,2.34,1.2,2.34,2.34c0,1.38-1.2,2.34-2.34,2.34
		c-1.38,0-2.34-1.2-2.34-2.4c0-0.24-0.06-0.54,0.12-0.78C289.332-227.356,290.173-227.896,291.133-227.896z M291.133-207.857
		c1.38,0,2.34,1.14,2.34,2.34c0,1.38-1.2,2.34-2.34,2.34c-1.38,0-2.34-1.2-2.34-2.4c0-0.24-0.06-0.54,0.12-0.78
		C289.332-207.317,290.173-207.857,291.133-207.857z M291.073-188.057c1.38,0,2.4,1.141,2.4,2.34c0,1.38-1.2,2.34-2.34,2.34
		c-1.38,0-2.34-1.14-2.34-2.399c0-0.24-0.06-0.54,0.12-0.78C289.332-187.577,290.053-188.057,291.073-188.057z"/>
	<path d="M304.154-220.696c1.38,0,2.28,1.14,2.28,2.28c0,1.38-1.02,2.34-2.22,2.34c-1.38,0-2.34-1.14-2.34-2.399
		c0-0.24-0.06-0.54,0.12-0.78C302.414-220.156,303.194-220.696,304.154-220.696z M304.154-207.676c1.38,0,2.28,1.14,2.28,2.28
		c0,1.38-1.02,2.34-2.22,2.34c-1.38,0-2.34-1.14-2.34-2.34c0-0.24-0.06-0.54,0.12-0.78
		C302.414-207.196,303.134-207.676,304.154-207.676z M304.154-227.536c1.38,0,2.28,1.2,2.28,2.4c0,1.38-1.14,2.22-2.28,2.22
		c-1.44,0-2.28-1.14-2.28-2.28c0-0.36,0.06-0.66,0.12-0.84C302.294-226.936,303.194-227.536,304.154-227.536z M304.154-214.096
		c1.44,0,2.28,1.08,2.28,2.28c0,1.38-1.14,2.28-2.28,2.28c-1.38,0-2.28-1.14-2.28-2.28c0-0.36,0.06-0.6,0.12-0.78
		C302.414-213.556,303.254-214.096,304.154-214.096z M304.214-201.017c1.38,0,2.22,1.02,2.22,2.28c0,1.381-1.14,2.28-2.28,2.28
		c-1.38,0-2.28-1.14-2.28-2.28c0-0.36,0.06-0.6,0.12-0.78C302.414-200.477,303.254-201.017,304.214-201.017z M304.214-194.237
		c1.38,0,2.22,1.021,2.22,2.28c0,1.38-1.14,2.28-2.28,2.28c-1.38,0-2.28-1.141-2.28-2.28c0-0.36,0.06-0.6,0.12-0.78
		C302.414-193.697,303.254-194.237,304.214-194.237z M304.214-187.817c1.38,0,2.22,1.021,2.22,2.28c0,1.38-1.14,2.279-2.28,2.279
		c-1.38,0-2.28-1.14-2.28-2.279c0-0.36,0.06-0.601,0.12-0.78C302.414-187.277,303.254-187.817,304.214-187.817z M313.093-198.917
		c0,1.44-0.9,2.4-2.16,2.4c-1.38,0-2.4-0.84-2.4-2.281c0-1.38,1.08-2.28,2.28-2.28C312.193-201.017,313.093-200.117,313.093-198.917
		z M308.594-225.556c0-1.14,0.84-2.28,2.22-2.28c1.2,0,2.4,0.9,2.4,2.28c0,1.2-0.96,2.34-2.34,2.34c-0.9,0-1.74-0.6-2.16-1.5
		C308.654-224.896,308.594-225.136,308.594-225.556z M315.193-225.496c0-1.14,0.9-2.34,2.28-2.34c1.14,0,2.34,0.84,2.34,2.22
		c0,1.26-0.96,2.4-2.34,2.4c-0.9,0-1.74-0.6-2.16-1.5C315.133-224.956,315.193-225.256,315.193-225.496z M318.013-201.017
		c1.38,0,2.279,1.14,2.279,2.28c0,1.381-1.199,2.28-2.34,2.28c-1.38,0-2.22-1.14-2.22-2.28c0-0.24-0.06-0.54,0.12-0.78
		C316.153-200.477,317.053-201.017,318.013-201.017z M322.813-196.337c1.2,0,2.34,0.96,2.34,2.34c0,1.14-0.9,2.28-2.28,2.28
		c-1.14,0-2.279-0.96-2.279-2.34c0-0.9,0.479-1.681,1.38-2.101C322.273-196.277,322.513-196.337,322.813-196.337z M321.913-225.195
		c0-1.14,0.9-2.34,2.28-2.34c1.14,0,2.34,0.96,2.34,2.34c0,1.14-0.84,2.28-2.34,2.28c-0.9,0-1.8-0.48-2.1-1.44
		C321.973-224.656,321.913-224.896,321.913-225.195z M324.733-202.277c1.38,0,2.34,1.2,2.34,2.34c0,1.26-1.08,2.28-2.28,2.28
		c-1.38,0-2.34-1.08-2.34-2.28c0-0.24,0.061-0.54,0.18-0.84C322.933-201.677,323.832-202.277,324.733-202.277z M327.613-191.897
		c1.2,0,2.34,0.96,2.34,2.34c0,1.2-0.9,2.28-2.28,2.28c-1.2,0-2.34-0.96-2.34-2.34c0-0.96,0.48-1.68,1.44-2.1
		C327.073-191.837,327.313-191.897,327.613-191.897z M327.493-221.956c0-1.2,0.96-2.34,2.34-2.34c1.2,0,2.28,0.96,2.28,2.34
		c0,1.2-0.96,2.28-2.34,2.28c-0.9,0-1.801-0.54-2.101-1.44C327.552-221.416,327.493-221.656,327.493-221.956z M330.193-205.877
		c1.26,0,2.279,1.14,2.279,2.28c0,1.44-1.2,2.28-2.34,2.28c-1.439,0-2.279-1.08-2.279-2.28c0-0.36,0.06-0.66,0.119-0.84
		C328.392-205.337,329.233-205.877,330.193-205.877z M332.232-187.397c1.141,0,2.28,0.84,2.28,2.22c0,1.2-0.96,2.34-2.34,2.34
		c-1.14,0-2.28-0.84-2.28-2.279c0-1.021,0.48-1.68,1.44-2.101C331.632-187.337,331.932-187.397,332.232-187.397z M330.373-209.596
		c0-1.14,0.96-2.22,2.22-2.22c1.14,0,2.4,0.96,2.4,2.34c0,1.2-0.96,2.22-2.34,2.22c-0.9,0-1.801-0.48-2.101-1.44
		C330.432-208.996,330.373-209.297,330.373-209.596z M330.733-216.076c0-1.2,0.899-2.28,2.279-2.28c1.26,0,2.28,0.84,2.28,2.22
		c0,1.2-0.84,2.34-2.22,2.34c-0.96,0-1.801-0.54-2.221-1.5C330.792-215.476,330.733-215.716,330.733-216.076z"/>
	<path d="M344.773-221.716c1.439,0,2.399,1.08,2.399,2.34c0,1.5-1.14,2.4-2.399,2.4c-1.44,0-2.34-1.08-2.34-2.22
		c0-0.3,0.06-0.66,0.18-1.02C342.913-221.116,343.813-221.716,344.773-221.716z M345.433-191.057c1.439,0,2.46,1.08,2.46,2.341
		c0,1.38-1.141,2.459-2.34,2.459c-1.5,0-2.521-1.199-2.521-2.399c0-0.3,0.061-0.6,0.18-0.9
		C343.633-190.457,344.473-191.057,345.433-191.057z M345.853-214.996c1.5,0,2.46,1.08,2.46,2.22c0,1.62-1.38,2.58-2.521,2.58
		c-1.5,0-2.399-1.14-2.399-2.28c0-0.42,0.06-0.66,0.24-0.96C344.053-214.396,344.893-214.996,345.853-214.996z M349.512-227.056
		c1.38,0,2.4,1.14,2.4,2.28c0,1.62-1.2,2.58-2.34,2.58c-1.62,0-2.46-1.26-2.46-2.4c0-0.3,0.06-0.6,0.18-0.9
		C347.712-226.456,348.552-227.056,349.512-227.056z M351.613-210.616c1.38,0,2.34,1.08,2.34,2.28c0,1.44-0.96,2.4-2.34,2.4
		c-1.44,0-2.4-1.14-2.4-2.34c0-0.24,0.061-0.54,0.181-0.84C349.693-210.076,350.653-210.616,351.613-210.616z M352.273-188.117
		c1.38,0,2.399,1.2,2.399,2.399c0,1.44-1.2,2.46-2.34,2.46c-1.38,0-2.4-1.02-2.4-2.22c0-0.42,0.061-0.78,0.24-1.08
		C350.472-187.457,351.313-188.117,352.273-188.117z M356.772-228.796c1.261,0,2.28,1.08,2.28,2.28c0,1.38-1.08,2.46-2.46,2.46
		s-2.34-1.14-2.34-2.34c0-0.3,0.06-0.6,0.18-0.9C354.852-228.256,355.752-228.796,356.772-228.796z M358.752-208.636
		c1.38,0,2.46,1.08,2.46,2.28c0,1.26-1.141,2.4-2.4,2.4c-1.38,0-2.34-1.02-2.34-2.22c0-0.3,0.061-0.6,0.18-0.9
		C356.953-208.216,357.792-208.636,358.752-208.636z M360.132-187.277c1.38,0,2.279,1.14,2.279,2.4c0,1.439-1.199,2.34-2.459,2.34
		c-1.381,0-2.341-1.08-2.341-2.28c0-0.3,0.061-0.6,0.181-0.9C358.212-186.677,359.112-187.277,360.132-187.277z M363.792-228.135
		c1.38,0,2.279,1.14,2.279,2.34c0,1.38-1.08,2.46-2.279,2.46c-1.381,0-2.4-1.08-2.4-2.28c0-0.3,0.06-0.6,0.18-0.9
		C361.992-227.536,362.832-228.135,363.792-228.135z M365.832-206.236c1.5,0,2.34,1.2,2.34,2.22c0,1.5-1.079,2.52-2.459,2.52
		c-1.381,0-2.28-1.14-2.28-2.4c0-0.3,0.06-0.6,0.18-0.9C364.032-205.696,364.872-206.236,365.832-206.236z M367.332-189.377
		c1.38,0,2.28,1.14,2.28,2.399c0,1.38-1.08,2.46-2.46,2.46s-2.28-1.14-2.28-2.399c0-0.301,0.061-0.601,0.181-0.9
		C365.352-188.777,366.312-189.377,367.332-189.377z M370.452-224.536c1.62,0,2.52,1.2,2.52,2.34c0,1.44-1.199,2.4-2.459,2.4
		c-1.44,0-2.341-1.14-2.341-2.34c0-0.36,0.061-0.66,0.12-0.84C368.711-223.996,369.432-224.536,370.452-224.536z M371.291-201.797
		c1.44,0,2.4,1.14,2.4,2.34c0,1.44-1.021,2.46-2.4,2.46c-1.439,0-2.399-1.02-2.399-2.28c0-0.3,0.06-0.66,0.18-1.02
		C369.372-201.196,370.272-201.797,371.291-201.797z M372.131-195.016c1.38,0,2.4,1.079,2.4,2.279c0,1.38-0.96,2.521-2.34,2.521
		c-1.62,0-2.521-1.141-2.521-2.34c0-0.301,0.061-0.601,0.181-0.9C370.272-194.417,371.171-195.016,372.131-195.016z"/>
	<path d="M385.692-227.836c1.38,0,2.34,1.14,2.34,2.34c0,1.38-1.14,2.34-2.34,2.34c-1.38,0-2.34-1.14-2.34-2.4
		c0-0.24-0.06-0.54,0.12-0.78C383.892-227.235,384.732-227.836,385.692-227.836z M385.692-220.936c1.38,0,2.34,1.14,2.34,2.34
		c0,1.38-1.14,2.34-2.34,2.34c-1.38,0-2.34-1.08-2.34-2.34c0-0.24,0.061-0.54,0.18-0.84
		C383.832-220.336,384.732-220.936,385.692-220.936z M385.692-214.276c1.38,0,2.34,1.14,2.34,2.34c0,1.38-1.14,2.34-2.34,2.34
		c-1.38,0-2.34-1.08-2.34-2.34c0-0.24,0.061-0.54,0.18-0.84C383.832-213.676,384.732-214.276,385.692-214.276z M385.752-207.736
		c1.38,0,2.279,1.14,2.279,2.34c0,1.38-1.14,2.34-2.34,2.34c-1.38,0-2.34-1.14-2.34-2.34c0-0.24,0.061-0.54,0.18-0.84
		C383.832-207.196,384.792-207.736,385.752-207.736z M385.752-201.017c1.38,0,2.279,1.14,2.279,2.28c0,1.381-1.08,2.4-2.34,2.4
		c-1.38,0-2.34-1.14-2.34-2.34c0-0.24,0.061-0.54,0.18-0.84C383.832-200.477,384.792-201.017,385.752-201.017z M385.692-194.357
		c1.38,0,2.34,1.141,2.34,2.34c0,1.381-1.14,2.341-2.34,2.341c-1.38,0-2.34-1.08-2.34-2.341c0-0.239,0.061-0.539,0.18-0.84
		C383.832-193.756,384.732-194.357,385.692-194.357z M385.692-187.997c1.38,0,2.34,1.14,2.34,2.34c0,1.38-1.14,2.34-2.399,2.34
		c-1.38,0-2.28-1.14-2.28-2.34c0-0.24,0.061-0.54,0.18-0.84C383.832-187.397,384.732-187.997,385.692-187.997z M392.291-227.896
		c1.38,0,2.28,1.2,2.28,2.34c0,1.38-1.14,2.34-2.28,2.34c-1.38,0-2.34-1.2-2.34-2.4c0-0.24-0.06-0.54,0.12-0.78
		C390.492-227.356,391.332-227.896,392.291-227.896z M392.291-207.857c1.38,0,2.28,1.2,2.28,2.4c0,1.38-1.14,2.28-2.28,2.28
		c-1.38,0-2.34-1.2-2.34-2.4c0-0.24-0.06-0.54,0.12-0.78C390.492-207.317,391.332-207.857,392.291-207.857z M392.232-188.057
		c1.38,0,2.34,1.141,2.34,2.4c0,1.38-1.14,2.279-2.28,2.279c-1.38,0-2.34-1.14-2.34-2.399c0-0.24-0.06-0.54,0.12-0.78
		C390.492-187.577,391.211-188.057,392.232-188.057z M399.072-227.896c1.38,0,2.279,1.14,2.279,2.28c0,1.38-1.14,2.4-2.34,2.4
		c-1.38,0-2.34-1.14-2.34-2.34c0-0.24,0.061-0.54,0.181-0.84C397.152-227.356,398.112-227.896,399.072-227.896z M399.072-207.857
		c1.38,0,2.279,1.14,2.279,2.28c0,1.38-1.079,2.4-2.34,2.4c-1.38,0-2.34-1.14-2.34-2.34c0-0.24,0.061-0.54,0.181-0.84
		C397.152-207.317,398.112-207.857,399.072-207.857z M399.011-188.057c1.38,0,2.34,1.141,2.34,2.34c0,1.38-1.14,2.34-2.34,2.34
		c-1.38,0-2.34-1.079-2.34-2.34c0-0.239,0.061-0.54,0.181-0.84C397.152-187.457,398.051-188.057,399.011-188.057z M405.851-227.896
		c1.38,0,2.28,1.2,2.28,2.34c0,1.38-1.2,2.34-2.34,2.34c-1.38,0-2.34-1.14-2.34-2.34c0-0.24,0.06-0.54,0.18-0.84
		C404.051-227.356,404.891-227.896,405.851-227.896z M405.851-207.857c1.38,0,2.28,1.2,2.28,2.4c0,1.38-1.14,2.28-2.34,2.28
		c-1.38,0-2.34-1.14-2.34-2.34c0-0.24,0.06-0.54,0.18-0.84C404.051-207.317,404.891-207.857,405.851-207.857z M405.791-188.057
		c1.38,0,2.34,1.141,2.34,2.4c0,1.38-1.14,2.279-2.34,2.279c-1.38,0-2.34-1.079-2.34-2.34c0-0.239,0.06-0.54,0.18-0.84
		C404.051-187.577,404.771-188.057,405.791-188.057z M412.331-227.896c1.381,0,2.341,1.2,2.341,2.34c0,1.38-1.2,2.34-2.341,2.34
		c-1.38,0-2.34-1.2-2.34-2.4c0-0.24-0.06-0.54,0.12-0.78C410.531-227.356,411.371-227.896,412.331-227.896z M412.331-207.857
		c1.381,0,2.341,1.14,2.341,2.34c0,1.38-1.2,2.34-2.341,2.34c-1.38,0-2.34-1.2-2.34-2.4c0-0.24-0.06-0.54,0.12-0.78
		C410.531-207.317,411.371-207.857,412.331-207.857z M412.271-188.057c1.38,0,2.4,1.141,2.4,2.34c0,1.38-1.2,2.34-2.341,2.34
		c-1.38,0-2.34-1.14-2.34-2.399c0-0.24-0.06-0.54,0.12-0.78C410.531-187.577,411.251-188.057,412.271-188.057z"/>
</g>
<g>
	<path fill="#FFFFFF" d="M39.193,16.561c-1.291,0-2.323,0.323-3.098,0.968s-1.4,1.486-1.872,2.518
		c-0.474,1.032-0.797,2.217-0.968,3.55c-0.174,1.335-0.258,2.691-0.258,4.066V51.29c0,3.012-0.452,5.572-1.356,7.68
		c-0.904,2.11-1.959,3.853-3.163,5.23c-1.207,1.377-2.433,2.411-3.68,3.098c-1.249,0.689-2.259,1.12-3.034,1.291v0.387
		c0.775,0.087,1.785,0.432,3.034,1.034c1.246,0.602,2.473,1.57,3.68,2.905c1.204,1.335,2.259,3.078,3.163,5.228
		c0.904,2.152,1.356,4.863,1.356,8.133v23.497c0,1.291,0.084,2.602,0.258,3.937c0.171,1.335,0.494,2.538,0.968,3.616
		c0.472,1.074,1.097,1.936,1.872,2.582s1.807,0.968,3.098,0.968h6.455v7.746h-9.037c-1.636,0-3.271-0.368-4.905-1.098
		c-1.636-0.733-3.121-1.807-4.455-3.227c-1.335-1.42-2.432-3.185-3.291-5.293c-0.861-2.11-1.291-4.54-1.291-7.294V88.34
		c0-2.323-0.303-4.431-0.904-6.326c-0.603-1.893-1.399-3.486-2.388-4.777c-0.991-1.291-2.131-2.279-3.422-2.969
		c-1.291-0.688-2.626-1.032-4.002-1.032v-8.78c1.376,0,2.711-0.365,4.002-1.098c1.291-0.73,2.431-1.762,3.422-3.098
		c0.988-1.333,1.785-2.947,2.388-4.841c0.602-1.891,0.904-3.957,0.904-6.196V25.727c0-2.753,0.429-5.184,1.291-7.294
		c0.859-2.108,1.957-3.873,3.291-5.293c1.334-1.42,2.818-2.495,4.455-3.227c1.634-0.73,3.269-1.098,4.905-1.098h9.037v7.746H39.193z
		"/>
	<path fill="#FFFFFF" d="M101.935,103.186V92.601h-0.258c-2.324,4.13-5.293,7.164-8.907,9.101
		c-3.615,1.936-7.875,2.905-12.781,2.905c-4.389,0-8.049-0.582-10.973-1.743c-2.927-1.162-5.293-2.817-7.1-4.971
		c-1.807-2.15-3.078-4.712-3.808-7.68c-0.732-2.97-1.098-6.262-1.098-9.876V36.443h10.973v45.185c0,4.13,1.204,7.403,3.615,9.81
		c2.409,2.411,5.723,3.616,9.94,3.616c3.357,0,6.262-0.516,8.714-1.55c2.453-1.032,4.497-2.495,6.132-4.389
		c1.634-1.893,2.861-4.108,3.68-6.648c0.817-2.538,1.226-5.314,1.226-8.328V36.443h10.973v66.743H101.935z"/>
	<path fill="#FFFFFF" d="M139.116,36.443v10.585h0.259c4.56-8.089,11.79-12.135,21.688-12.135c4.39,0,8.047,0.603,10.973,1.807
		c2.925,1.207,5.293,2.885,7.1,5.035c1.808,2.153,3.076,4.713,3.809,7.682c0.73,2.969,1.097,6.262,1.097,9.876v43.894h-10.973
		V58.002c0-4.13-1.206-7.401-3.615-9.812c-2.411-2.407-5.725-3.614-9.94-3.614c-3.356,0-6.261,0.516-8.714,1.55
		c-2.453,1.032-4.498,2.496-6.132,4.389c-1.636,1.894-2.862,4.11-3.679,6.648c-0.819,2.54-1.227,5.315-1.227,8.328v37.696h-10.973
		V36.443H139.116z"/>
	<path fill="#FFFFFF" d="M201.213,24.436V11.01h10.973v13.426H201.213z M212.186,36.443v66.743h-10.973V36.443H212.186z"/>
	<path fill="#FFFFFF" d="M230.516,120.874c1.291,0,2.324-0.323,3.099-0.968c0.774-0.645,1.398-1.484,1.872-2.518
		c0.472-1.032,0.795-2.217,0.968-3.55c0.171-1.335,0.258-2.691,0.258-4.066V86.274c0-3.011,0.452-5.571,1.356-7.68
		c0.904-2.108,1.957-3.851,3.163-5.23c1.204-1.375,2.431-2.407,3.68-3.098c1.246-0.688,2.259-1.118,3.033-1.291v-0.387
		c-0.774-0.086-1.787-0.43-3.033-1.034c-1.249-0.6-2.475-1.568-3.68-2.905c-1.206-1.333-2.259-3.076-3.163-5.228
		c-0.904-2.15-1.356-4.861-1.356-8.133V27.922c0-1.462-0.087-2.861-0.258-4.196c-0.173-1.333-0.496-2.538-0.968-3.616
		c-0.474-1.074-1.098-1.936-1.872-2.582c-0.775-0.645-1.808-0.968-3.099-0.968h-6.455V8.815h9.037c1.634,0,3.27,0.368,4.906,1.098
		c1.634,0.733,3.119,1.807,4.454,3.227c1.334,1.42,2.431,3.185,3.292,5.293c0.86,2.11,1.291,4.54,1.291,7.294v23.497
		c0,2.323,0.301,4.433,0.904,6.326c0.602,1.894,1.399,3.508,2.389,4.841c0.988,1.335,2.13,2.347,3.421,3.034
		c1.291,0.689,2.625,1.032,4.002,1.032v8.78c-1.378,0-2.711,0.366-4.002,1.096c-1.291,0.733-2.432,1.765-3.421,3.1
		c-0.99,1.335-1.787,2.927-2.389,4.776c-0.603,1.852-0.904,3.895-0.904,6.132v23.367c0,2.753-0.431,5.184-1.291,7.294
		c-0.862,2.108-1.958,3.873-3.292,5.293c-1.335,1.42-2.82,2.495-4.454,3.227c-1.636,0.73-3.272,1.098-4.906,1.098h-9.037v-7.746
		H230.516z"/>
</g>
<g>
	<path fill="#FFFFFF" d="M278.134,37.856c0,1.936-1.475,3.228-3.227,3.504c-2.305,0-3.872-1.475-3.872-3.688
		c0-1.936,1.383-3.226,3.319-3.502c1.936,0,3.688,1.106,3.78,3.226V37.856z M282.467,46.984c0,2.12-1.66,3.411-3.78,3.411
		c-1.844,0-3.042-1.384-3.319-3.319c0-2.12,1.475-3.78,3.688-3.78c1.937,0,3.319,1.475,3.412,3.226V46.984z M286.8,56.111
		c0,2.12-1.567,3.319-3.78,3.319c-1.752,0-3.042-1.384-3.319-3.319c0-1.936,1.106-3.595,3.226-3.872c2.12,0,3.78,1.197,3.872,3.318
		V56.111z M287.445,68.557c-1.752,0-3.135-1.384-3.411-3.319c0-2.212,1.475-3.872,3.688-3.872c1.843,0,3.226,1.567,3.503,3.319
		C291.225,66.805,289.934,68.557,287.445,68.557z M291.778,77.592c-1.936,0-3.411-1.751-3.411-3.688c0-1.936,1.66-3.502,3.78-3.502
		c1.843,0,3.134,1.567,3.411,3.318C295.558,75.932,294.267,77.592,291.778,77.592z M296.572,86.718
		c-2.213,0-3.872-1.475-3.872-3.687c0-2.12,1.66-3.504,3.78-3.504c1.751,0,3.134,1.384,3.411,3.319
		C299.891,84.782,298.785,86.442,296.572,86.718z M303.855,92.342c0,1.936-1.66,3.411-3.78,3.411c-2.12,0-3.412-1.66-3.412-3.78
		c0-1.936,1.66-3.411,3.78-3.411c1.752,0,3.135,1.382,3.412,3.319V92.342z M305.054,97.044c1.844,0,3.503,1.66,3.503,3.411
		c0,2.12-1.659,3.688-3.411,3.688c-2.213,0-3.78-1.199-3.78-3.319v-0.554C301.643,98.427,303.21,97.044,305.054,97.044z
		 M309.571,88.562c2.12,0,3.872,1.291,3.872,3.411c0,2.12-1.567,3.78-3.504,3.78c-2.12,0-3.687-1.475-3.687-3.411v-0.461
		C306.529,89.945,307.728,88.562,309.571,88.562z M313.351,79.527c2.12,0,3.78,1.291,3.78,3.411c0,2.12-1.475,3.78-3.595,3.78
		c-2.121,0-3.504-1.66-3.504-3.411v-0.461C310.309,80.911,311.507,79.527,313.351,79.527z M317.776,70.401
		c1.936,0,3.688,1.567,3.688,3.411c0,2.12-1.291,3.78-3.411,3.78c-2.121,0-3.688-1.475-3.688-3.411v-0.462
		C314.642,71.967,315.932,70.401,317.776,70.401z M322.109,61.366c1.936,0,3.688,1.291,3.688,3.411c0,2.213-1.291,3.78-3.411,3.78
		c-2.305,0-3.688-1.751-3.688-3.872C318.975,62.932,320.265,61.366,322.109,61.366z M323.308,55.926c0-2.12,1.752-3.595,3.596-3.595
		c2.12,0,3.503,1.936,3.503,3.687c0,2.122-1.937,3.504-3.688,3.504c-0.554,0-0.922-0.092-1.199-0.185
		C324.137,58.692,323.308,57.31,323.308,55.926z M330.775,43.296c2.305,0,3.78,1.751,3.78,3.595c0,2.12-1.66,3.504-3.503,3.504
		c-2.305,0-3.688-1.66-3.688-3.873C327.641,44.771,329.024,43.296,330.775,43.296z M335.385,34.169c2.12,0,3.503,1.844,3.503,3.78
		s-1.751,3.411-3.688,3.411c-1.843,0-3.503-1.66-3.503-3.504v-0.461C331.974,35.551,333.541,34.169,335.385,34.169z"/>
	<path fill="#FFFFFF" d="M351.244,34.999c2.12,0,3.595,1.751,3.595,3.595c0,2.12-1.752,3.595-3.595,3.595
		c-2.12,0-3.595-1.751-3.595-3.688c0-0.368-0.092-0.83,0.185-1.197C348.479,35.92,349.769,34.999,351.244,34.999z M351.244,45.6
		c2.12,0,3.595,1.751,3.595,3.595c0,2.12-1.752,3.595-3.595,3.595c-2.12,0-3.595-1.66-3.595-3.595c0-0.369,0.092-0.83,0.277-1.291
		C348.386,46.522,349.769,45.6,351.244,45.6z M351.244,55.834c2.12,0,3.595,1.751,3.595,3.595c0,2.12-1.752,3.595-3.595,3.595
		c-2.12,0-3.595-1.66-3.595-3.595c0-0.369,0.092-0.83,0.277-1.291C348.386,56.756,349.769,55.834,351.244,55.834z M351.336,65.882
		c2.12,0,3.503,1.753,3.503,3.595c0,2.12-1.752,3.595-3.595,3.595c-2.12,0-3.595-1.751-3.595-3.595c0-0.368,0.092-0.83,0.277-1.291
		C348.386,66.712,349.861,65.882,351.336,65.882z M351.336,76.208c2.12,0,3.503,1.753,3.503,3.504c0,2.12-1.66,3.687-3.595,3.687
		c-2.12,0-3.595-1.751-3.595-3.595c0-0.368,0.092-0.83,0.277-1.291C348.386,77.038,349.861,76.208,351.336,76.208z M351.244,86.442
		c2.12,0,3.595,1.751,3.595,3.595c0,2.12-1.752,3.595-3.595,3.595c-2.12,0-3.595-1.66-3.595-3.595c0-0.369,0.092-0.83,0.277-1.291
		C348.386,87.364,349.769,86.442,351.244,86.442z M351.244,96.214c2.12,0,3.595,1.753,3.595,3.595c0,2.12-1.752,3.595-3.688,3.595
		c-2.12,0-3.503-1.751-3.503-3.595c0-0.368,0.092-0.83,0.277-1.291C348.386,97.137,349.769,96.214,351.244,96.214z M361.385,34.906
		c2.12,0,3.503,1.844,3.503,3.595c0,2.12-1.751,3.595-3.503,3.595c-2.12,0-3.595-1.843-3.595-3.687c0-0.369-0.092-0.83,0.185-1.199
		C358.62,35.736,359.91,34.906,361.385,34.906z M361.385,65.698c2.12,0,3.503,1.844,3.503,3.688c0,2.12-1.751,3.504-3.503,3.504
		c-2.12,0-3.595-1.844-3.595-3.688c0-0.369-0.092-0.83,0.185-1.199C358.62,66.528,359.91,65.698,361.385,65.698z M361.293,96.122
		c2.12,0,3.595,1.751,3.595,3.687c0,2.12-1.751,3.504-3.503,3.504c-2.12,0-3.595-1.751-3.595-3.688c0-0.368-0.092-0.83,0.185-1.197
		C358.62,96.859,359.726,96.122,361.293,96.122z M371.803,34.906c2.12,0,3.503,1.753,3.503,3.504c0,2.12-1.751,3.687-3.595,3.687
		c-2.12,0-3.595-1.751-3.595-3.595c0-0.368,0.092-0.83,0.277-1.291C368.853,35.736,370.328,34.906,371.803,34.906z M371.803,65.698
		c2.12,0,3.503,1.753,3.503,3.504c0,2.12-1.659,3.688-3.595,3.688c-2.12,0-3.595-1.753-3.595-3.597c0-0.368,0.092-0.828,0.277-1.291
		C368.853,66.528,370.328,65.698,371.803,65.698z M371.711,96.122c2.12,0,3.595,1.751,3.595,3.595c0,2.12-1.751,3.595-3.595,3.595
		c-2.12,0-3.595-1.66-3.595-3.595c0-0.369,0.092-0.83,0.277-1.291C368.853,97.044,370.236,96.122,371.711,96.122z M382.221,34.906
		c2.12,0,3.503,1.844,3.503,3.595c0,2.12-1.843,3.595-3.595,3.595c-2.12,0-3.595-1.751-3.595-3.595c0-0.368,0.092-0.83,0.277-1.291
		C379.455,35.736,380.746,34.906,382.221,34.906z M382.221,65.698c2.12,0,3.503,1.844,3.503,3.688c0,2.12-1.751,3.504-3.595,3.504
		c-2.12,0-3.595-1.753-3.595-3.597c0-0.368,0.092-0.828,0.277-1.291C379.455,66.528,380.746,65.698,382.221,65.698z M382.129,96.122
		c2.12,0,3.595,1.751,3.595,3.687c0,2.12-1.751,3.504-3.595,3.504c-2.12,0-3.595-1.66-3.595-3.595c0-0.369,0.092-0.83,0.277-1.291
		C379.455,96.859,380.561,96.122,382.129,96.122z M392.178,34.906c2.12,0,3.595,1.844,3.595,3.595c0,2.12-1.844,3.595-3.595,3.595
		c-2.121,0-3.596-1.843-3.596-3.687c0-0.369-0.092-0.83,0.185-1.199C389.412,35.736,390.703,34.906,392.178,34.906z M392.178,65.698
		c2.12,0,3.595,1.753,3.595,3.595c0,2.122-1.844,3.597-3.595,3.597c-2.121,0-3.596-1.844-3.596-3.688
		c0-0.369-0.092-0.83,0.185-1.199C389.412,66.528,390.703,65.698,392.178,65.698z M392.086,96.122c2.12,0,3.688,1.751,3.688,3.595
		c0,2.12-1.844,3.595-3.595,3.595c-2.121,0-3.596-1.751-3.596-3.688c0-0.368-0.092-0.83,0.185-1.197
		C389.412,96.859,390.519,96.122,392.086,96.122z"/>
	<path fill="#FFFFFF" d="M412.186,45.97c2.12,0,3.503,1.751,3.503,3.502c0,2.12-1.567,3.595-3.411,3.595
		c-2.12,0-3.595-1.751-3.595-3.687c0-0.369-0.092-0.83,0.185-1.199C409.513,46.799,410.711,45.97,412.186,45.97z M412.186,65.976
		c2.12,0,3.503,1.751,3.503,3.502c0,2.12-1.567,3.595-3.411,3.595c-2.12,0-3.595-1.751-3.595-3.595c0-0.368-0.092-0.83,0.185-1.197
		C409.513,66.712,410.619,65.976,412.186,65.976z M412.186,35.459c2.12,0,3.503,1.844,3.503,3.687c0,2.12-1.751,3.412-3.503,3.412
		c-2.213,0-3.503-1.753-3.503-3.504c0-0.554,0.092-1.014,0.185-1.291C409.328,36.381,410.711,35.459,412.186,35.459z
		 M412.186,56.111c2.213,0,3.503,1.66,3.503,3.504c0,2.12-1.751,3.502-3.503,3.502c-2.12,0-3.503-1.751-3.503-3.502
		c0-0.554,0.092-0.923,0.185-1.199C409.513,56.94,410.804,56.111,412.186,56.111z M412.279,76.208c2.12,0,3.411,1.568,3.411,3.504
		c0,2.12-1.751,3.504-3.503,3.504c-2.12,0-3.503-1.753-3.503-3.504c0-0.554,0.092-0.921,0.185-1.199
		C409.513,77.038,410.804,76.208,412.279,76.208z M412.279,86.627c2.12,0,3.411,1.567,3.411,3.502c0,2.12-1.751,3.504-3.503,3.504
		c-2.12,0-3.503-1.751-3.503-3.504c0-0.552,0.092-0.921,0.185-1.197C409.513,87.457,410.804,86.627,412.279,86.627z M412.279,96.492
		c2.12,0,3.411,1.567,3.411,3.502c0,2.12-1.751,3.504-3.503,3.504c-2.12,0-3.503-1.753-3.503-3.504c0-0.552,0.092-0.921,0.185-1.199
		C409.513,97.32,410.804,96.492,412.279,96.492z M425.923,79.436c0,2.212-1.383,3.687-3.319,3.687c-2.12,0-3.688-1.291-3.688-3.504
		c0-2.12,1.66-3.502,3.503-3.502C424.54,76.208,425.923,77.592,425.923,79.436z M419.009,38.501c0-1.751,1.29-3.502,3.411-3.502
		c1.844,0,3.688,1.382,3.688,3.502c0,1.844-1.475,3.595-3.595,3.595c-1.383,0-2.673-0.921-3.319-2.305
		C419.101,39.516,419.009,39.146,419.009,38.501z M429.15,38.594c0-1.753,1.383-3.595,3.503-3.595c1.752,0,3.595,1.291,3.595,3.411
		c0,1.936-1.475,3.687-3.595,3.687c-1.383,0-2.673-0.921-3.319-2.305C429.058,39.424,429.15,38.963,429.15,38.594z M433.483,76.208
		c2.12,0,3.503,1.753,3.503,3.504c0,2.12-1.844,3.504-3.595,3.504c-2.12,0-3.411-1.753-3.411-3.504c0-0.369-0.092-0.83,0.185-1.199
		C430.625,77.038,432.008,76.208,433.483,76.208z M440.858,83.399c1.844,0,3.595,1.475,3.595,3.595c0,1.753-1.383,3.504-3.503,3.504
		c-1.752,0-3.503-1.475-3.503-3.595c0-1.384,0.738-2.581,2.12-3.226C440.028,83.492,440.398,83.399,440.858,83.399z M439.475,39.055
		c0-1.751,1.383-3.595,3.503-3.595c1.752,0,3.595,1.475,3.595,3.595c0,1.751-1.29,3.504-3.595,3.504
		c-1.383,0-2.766-0.738-3.226-2.213C439.568,39.885,439.475,39.516,439.475,39.055z M443.808,74.272c2.12,0,3.595,1.844,3.595,3.595
		c0,1.936-1.659,3.504-3.503,3.504c-2.12,0-3.595-1.66-3.595-3.504c0-0.369,0.092-0.83,0.276-1.291
		C441.043,75.194,442.426,74.272,443.808,74.272z M448.234,90.222c1.844,0,3.595,1.475,3.595,3.595c0,1.844-1.383,3.502-3.503,3.502
		c-1.844,0-3.595-1.475-3.595-3.595c0-1.475,0.738-2.581,2.213-3.226C447.404,90.314,447.773,90.222,448.234,90.222z
		 M448.049,44.034c0-1.844,1.475-3.595,3.596-3.595c1.843,0,3.503,1.475,3.503,3.595c0,1.843-1.475,3.502-3.595,3.502
		c-1.383,0-2.766-0.83-3.227-2.212C448.141,44.864,448.049,44.494,448.049,44.034z M452.198,68.741c1.936,0,3.503,1.751,3.503,3.502
		c0,2.213-1.844,3.504-3.595,3.504c-2.213,0-3.503-1.66-3.503-3.504c0-0.552,0.092-1.013,0.184-1.291
		C449.432,69.571,450.723,68.741,452.198,68.741z M455.332,97.137c1.752,0,3.504,1.291,3.504,3.411c0,1.844-1.475,3.595-3.595,3.595
		c-1.752,0-3.504-1.291-3.504-3.504c0-1.567,0.738-2.581,2.213-3.226C454.411,97.228,454.872,97.137,455.332,97.137z
		 M452.474,63.025c0-1.753,1.475-3.411,3.412-3.411c1.751,0,3.688,1.475,3.688,3.595c0,1.843-1.475,3.411-3.595,3.411
		c-1.383,0-2.766-0.738-3.227-2.213C452.567,63.947,452.474,63.486,452.474,63.025z M453.028,53.067
		c0-1.843,1.383-3.502,3.503-3.502c1.936,0,3.503,1.291,3.503,3.411c0,1.844-1.291,3.595-3.411,3.595
		c-1.475,0-2.766-0.83-3.412-2.305C453.12,53.99,453.028,53.621,453.028,53.067z"/>
	<path fill="#FFFFFF" d="M474.602,44.401c2.213,0,3.688,1.66,3.688,3.595c0,2.305-1.751,3.688-3.688,3.688
		c-2.213,0-3.595-1.66-3.595-3.411c0-0.461,0.092-1.014,0.277-1.568C471.744,45.324,473.127,44.401,474.602,44.401z M475.617,91.513
		c2.213,0,3.78,1.66,3.78,3.595c0,2.12-1.752,3.78-3.595,3.78c-2.305,0-3.872-1.844-3.872-3.688c0-0.461,0.092-0.921,0.276-1.382
		C472.851,92.434,474.141,91.513,475.617,91.513z M476.262,54.727c2.305,0,3.78,1.66,3.78,3.412c0,2.488-2.12,3.963-3.872,3.963
		c-2.305,0-3.688-1.751-3.688-3.502c0-0.645,0.092-1.014,0.369-1.475C473.496,55.65,474.787,54.727,476.262,54.727z M481.885,36.196
		c2.12,0,3.688,1.753,3.688,3.504c0,2.489-1.843,3.965-3.595,3.965c-2.489,0-3.78-1.936-3.78-3.688c0-0.461,0.092-0.921,0.277-1.382
		C479.12,37.119,480.41,36.196,481.885,36.196z M485.112,61.457c2.12,0,3.595,1.66,3.595,3.504c0,2.212-1.475,3.687-3.595,3.687
		c-2.213,0-3.688-1.751-3.688-3.595c0-0.368,0.092-0.83,0.277-1.291C482.162,62.287,483.637,61.457,485.112,61.457z M486.127,96.029
		c2.12,0,3.688,1.844,3.688,3.688c0,2.212-1.844,3.78-3.595,3.78c-2.121,0-3.688-1.568-3.688-3.411c0-0.645,0.092-1.199,0.369-1.66
		C483.36,97.044,484.652,96.029,486.127,96.029z M493.041,33.524c1.937,0,3.504,1.66,3.504,3.502c0,2.12-1.66,3.78-3.78,3.78
		c-2.12,0-3.595-1.751-3.595-3.595c0-0.461,0.092-0.921,0.276-1.382C490.091,34.353,491.473,33.524,493.041,33.524z M496.083,64.5
		c2.12,0,3.78,1.66,3.78,3.502c0,1.937-1.752,3.688-3.688,3.688c-2.12,0-3.595-1.568-3.595-3.411c0-0.462,0.092-0.923,0.276-1.384
		C493.318,65.146,494.608,64.5,496.083,64.5z M498.204,97.32c2.12,0,3.503,1.753,3.503,3.688c0,2.212-1.844,3.595-3.779,3.595
		c-2.121,0-3.596-1.66-3.596-3.504c0-0.461,0.092-0.921,0.277-1.382C495.253,98.243,496.636,97.32,498.204,97.32z M503.828,34.538
		c2.12,0,3.503,1.751,3.503,3.595c0,2.12-1.66,3.78-3.503,3.78c-2.121,0-3.688-1.66-3.688-3.504c0-0.461,0.092-0.921,0.276-1.384
		C501.061,35.459,502.353,34.538,503.828,34.538z M506.962,68.187c2.305,0,3.595,1.844,3.595,3.411c0,2.305-1.66,3.873-3.78,3.873
		s-3.503-1.753-3.503-3.688c0-0.461,0.092-0.921,0.277-1.382C504.196,69.017,505.487,68.187,506.962,68.187z M509.267,94.094
		c2.12,0,3.504,1.751,3.504,3.688c0,2.12-1.66,3.78-3.78,3.78s-3.504-1.753-3.504-3.688c0-0.461,0.092-0.921,0.276-1.382
		C506.223,95.017,507.699,94.094,509.267,94.094z M514.061,40.069c2.488,0,3.872,1.844,3.872,3.595c0,2.212-1.844,3.687-3.78,3.687
		c-2.212,0-3.595-1.751-3.595-3.595c0-0.552,0.092-1.014,0.185-1.291C511.387,40.899,512.493,40.069,514.061,40.069z
		 M515.352,75.011c2.212,0,3.687,1.751,3.687,3.595c0,2.212-1.567,3.78-3.687,3.78c-2.213,0-3.688-1.568-3.688-3.504
		c0-0.461,0.093-1.014,0.278-1.567C512.401,75.932,513.783,75.011,515.352,75.011z M516.642,85.428c2.12,0,3.687,1.66,3.687,3.504
		c0,2.12-1.475,3.872-3.595,3.872c-2.488,0-3.872-1.751-3.872-3.595c0-0.461,0.092-0.921,0.276-1.384
		C513.783,86.349,515.167,85.428,516.642,85.428z"/>
	<path fill="#FFFFFF" d="M537.479,34.999c2.12,0,3.595,1.751,3.595,3.595c0,2.12-1.751,3.595-3.595,3.595
		c-2.12,0-3.595-1.751-3.595-3.688c0-0.368-0.093-0.83,0.185-1.197C534.714,35.92,536.004,34.999,537.479,34.999z M537.479,45.6
		c2.12,0,3.595,1.751,3.595,3.595c0,2.12-1.751,3.595-3.595,3.595c-2.12,0-3.595-1.66-3.595-3.595c0-0.369,0.092-0.83,0.276-1.291
		C534.621,46.522,536.004,45.6,537.479,45.6z M537.479,55.834c2.12,0,3.595,1.751,3.595,3.595c0,2.12-1.751,3.595-3.595,3.595
		c-2.12,0-3.595-1.66-3.595-3.595c0-0.369,0.092-0.83,0.276-1.291C534.621,56.756,536.004,55.834,537.479,55.834z M537.571,65.882
		c2.12,0,3.504,1.753,3.504,3.595c0,2.12-1.751,3.595-3.595,3.595c-2.12,0-3.595-1.751-3.595-3.595c0-0.368,0.092-0.83,0.276-1.291
		C534.621,66.712,536.096,65.882,537.571,65.882z M537.571,76.208c2.12,0,3.504,1.753,3.504,3.504c0,2.12-1.66,3.687-3.595,3.687
		c-2.12,0-3.595-1.751-3.595-3.595c0-0.368,0.092-0.83,0.276-1.291C534.621,77.038,536.096,76.208,537.571,76.208z M537.479,86.442
		c2.12,0,3.595,1.751,3.595,3.595c0,2.12-1.751,3.595-3.595,3.595c-2.12,0-3.595-1.66-3.595-3.595c0-0.369,0.092-0.83,0.276-1.291
		C534.621,87.364,536.004,86.442,537.479,86.442z M537.479,96.214c2.12,0,3.595,1.753,3.595,3.595c0,2.12-1.751,3.595-3.688,3.595
		c-2.12,0-3.502-1.751-3.502-3.595c0-0.368,0.092-0.83,0.276-1.291C534.621,97.137,536.004,96.214,537.479,96.214z M547.62,34.906
		c2.12,0,3.504,1.844,3.504,3.595c0,2.12-1.753,3.595-3.504,3.595c-2.12,0-3.595-1.843-3.595-3.687c0-0.369-0.093-0.83,0.185-1.199
		C544.855,35.736,546.145,34.906,547.62,34.906z M547.62,65.698c2.12,0,3.504,1.844,3.504,3.688c0,2.12-1.753,3.504-3.504,3.504
		c-2.12,0-3.595-1.844-3.595-3.688c0-0.369-0.093-0.83,0.185-1.199C544.855,66.528,546.145,65.698,547.62,65.698z M547.527,96.122
		c2.122,0,3.597,1.751,3.597,3.687c0,2.12-1.753,3.504-3.504,3.504c-2.12,0-3.595-1.751-3.595-3.688c0-0.368-0.093-0.83,0.185-1.197
		C544.855,96.859,545.961,96.122,547.527,96.122z M558.038,34.906c2.12,0,3.504,1.753,3.504,3.504c0,2.12-1.751,3.687-3.595,3.687
		c-2.12,0-3.595-1.751-3.595-3.595c0-0.368,0.092-0.83,0.276-1.291C555.087,35.736,556.562,34.906,558.038,34.906z M558.038,65.698
		c2.12,0,3.504,1.753,3.504,3.504c0,2.12-1.66,3.688-3.595,3.688c-2.12,0-3.595-1.753-3.595-3.597c0-0.368,0.092-0.828,0.276-1.291
		C555.087,66.528,556.562,65.698,558.038,65.698z M557.946,96.122c2.12,0,3.595,1.751,3.595,3.595c0,2.12-1.751,3.595-3.595,3.595
		c-2.12,0-3.595-1.66-3.595-3.595c0-0.369,0.092-0.83,0.276-1.291C555.087,97.044,556.471,96.122,557.946,96.122z M568.456,34.906
		c2.12,0,3.502,1.844,3.502,3.595c0,2.12-1.843,3.595-3.595,3.595c-2.12,0-3.595-1.751-3.595-3.595c0-0.368,0.093-0.83,0.278-1.291
		C565.691,35.736,566.981,34.906,568.456,34.906z M568.456,65.698c2.12,0,3.502,1.844,3.502,3.688c0,2.12-1.751,3.504-3.595,3.504
		c-2.12,0-3.595-1.753-3.595-3.597c0-0.368,0.093-0.828,0.278-1.291C565.691,66.528,566.981,65.698,568.456,65.698z M568.363,96.122
		c2.12,0,3.595,1.751,3.595,3.687c0,2.12-1.751,3.504-3.595,3.504c-2.12,0-3.595-1.66-3.595-3.595c0-0.369,0.093-0.83,0.278-1.291
		C565.691,96.859,566.797,96.122,568.363,96.122z M578.413,34.906c2.12,0,3.595,1.844,3.595,3.595c0,2.12-1.844,3.595-3.595,3.595
		c-2.12,0-3.595-1.843-3.595-3.687c0-0.369-0.092-0.83,0.185-1.199C575.647,35.736,576.938,34.906,578.413,34.906z M578.413,65.698
		c2.12,0,3.595,1.753,3.595,3.595c0,2.122-1.844,3.597-3.595,3.597c-2.12,0-3.595-1.844-3.595-3.688c0-0.369-0.092-0.83,0.185-1.199
		C575.647,66.528,576.938,65.698,578.413,65.698z M578.321,96.122c2.12,0,3.687,1.751,3.687,3.595c0,2.12-1.844,3.595-3.595,3.595
		c-2.12,0-3.595-1.751-3.595-3.688c0-0.368-0.092-0.83,0.185-1.197C575.647,96.859,576.753,96.122,578.321,96.122z"/>
</g>
<g>
</g>
<g>
</g>
<g>
</g>
<g>
</g>
<g>
</g>
<g>
</g>
</svg>
